<svg version="1.1" id="Layer_1" xmlns="http://www.w3.org/2000/svg" xmlns:xlink="http://www.w3.org/1999/xlink" x="0px" y="0px"
	 width="100%" viewBox="0 0 500 500" enable-background="new 0 0 500 500" xml:space="preserve">
<path fill="#4C6971" opacity="1.000000" stroke="none" 
	d="
M1.000000,194.000000 
	C1.000000,129.349350 1.000000,65.198708 1.000000,1.024032 
	C167.609024,1.024032 334.218048,1.024032 500.913544,1.024032 
	C500.913544,167.567368 500.913544,334.134796 500.913544,500.851135 
	C334.333435,500.851135 167.666733,500.851135 1.000000,500.851135 
	C1.000000,398.781830 1.000000,296.640900 1.000000,194.000000 
M101.374763,404.167175 
	C100.972015,405.444519 100.569275,406.721893 100.037880,408.891022 
	C100.988655,413.942871 101.939430,418.994690 102.979019,424.752075 
	C103.617462,426.184906 104.255913,427.617737 104.976761,429.816406 
	C104.790169,433.466003 106.644386,435.728821 110.012383,437.543488 
	C110.063828,437.706268 110.115280,437.869049 110.066895,438.736694 
	C112.507568,440.730255 114.720955,443.190369 117.478386,444.533752 
	C119.010849,445.280304 121.450722,444.164307 123.481628,443.887756 
	C123.170624,441.914734 123.307739,439.719604 122.461388,438.011902 
	C120.256500,433.562988 117.620369,429.327820 115.519974,424.900635 
	C115.519974,424.900635 115.755470,424.603577 116.315491,424.328064 
	C122.198036,428.259155 128.080582,432.190216 134.209137,436.675140 
	C134.861649,437.437622 135.514160,438.200073 136.247604,439.633179 
	C140.220474,445.421875 144.193344,451.210602 148.222595,457.610535 
	C149.148621,458.351624 150.074661,459.092712 151.849915,459.962128 
	C157.945053,459.960510 159.324661,458.308350 157.713104,452.541351 
	C157.148941,450.522522 156.027130,448.663086 155.204391,446.712128 
	C154.058105,443.993958 152.953568,441.258179 151.449051,437.601105 
	C158.769028,442.123810 164.915894,446.199677 171.324402,449.811310 
	C179.426865,454.377625 187.725632,458.598358 195.992798,462.865326 
	C196.790314,463.276947 197.973785,463.073395 198.957809,462.967285 
	C202.595154,462.575012 203.527740,459.860596 202.379181,456.361481 
	C200.813721,451.592224 199.458771,446.588989 199.132767,441.612732 
	C198.487549,431.763123 198.919662,421.925690 205.459396,412.636017 
	C206.348007,413.995148 207.434250,415.184418 207.985764,416.584412 
	C210.031708,421.777679 210.956253,427.696289 214.038406,432.137421 
	C220.058289,440.811646 227.517776,448.270935 237.953400,451.992554 
	C242.773972,453.711670 246.120667,452.405701 246.902267,447.173309 
	C247.856689,440.783844 251.743164,435.955383 255.929016,432.044342 
	C261.250092,427.072571 267.917389,423.510529 274.195465,419.651764 
	C274.709229,419.335968 277.726776,421.335876 277.798370,422.381744 
	C278.031250,425.785522 277.687958,429.289368 277.102661,432.674561 
	C276.160522,438.123596 279.145081,442.597168 283.911896,441.809418 
	C287.578735,441.203430 291.394348,440.292542 294.625336,438.553833 
	C298.843933,436.283691 302.771973,433.320984 306.426819,430.191223 
	C312.134247,425.303741 318.149597,420.549866 322.857483,414.779114 
	C328.573944,407.772064 333.067932,399.767731 338.659821,391.337006 
	C338.870850,394.526794 339.018799,396.763184 339.037903,399.862762 
	C337.987885,407.048004 338.522308,414.753387 333.589294,419.676300 
	C331.793396,417.603333 330.532593,414.826355 328.625702,414.272095 
	C326.079315,413.531921 323.900543,418.309113 324.530853,422.850647 
	C326.190308,423.145325 328.039185,423.184265 329.608887,423.866028 
	C330.484467,424.246368 331.659729,426.103333 331.395416,426.598450 
	C329.289276,430.543427 326.870453,434.321411 324.095398,438.767609 
	C322.791748,441.108154 320.965851,443.327240 320.382629,445.835327 
	C320.039032,447.312805 321.630676,450.710388 322.414032,450.729767 
	C326.149353,450.821991 330.527863,451.117828 333.525513,449.367798 
	C339.772003,445.721130 345.286682,440.822906 351.111877,436.452026 
	C364.602905,426.329254 373.307434,412.359711 379.697510,397.371307 
	C387.046631,380.133331 390.180359,361.834564 387.091797,342.828156 
	C385.494873,333.000916 382.938293,323.422546 378.620667,314.639679 
	C373.455139,304.132050 366.239807,294.806274 357.407043,286.904755 
	C355.600464,285.288635 352.360657,283.503906 352.460022,281.970428 
	C352.587860,279.997345 355.417633,278.199646 357.082275,276.325287 
	C357.300812,276.079285 357.665741,275.847748 357.703491,275.573761 
	C358.463196,270.055237 359.462646,264.546875 359.769867,259.000793 
	C359.883759,256.945160 358.692505,254.795746 355.536835,254.740936 
	C351.604553,254.672653 347.683807,253.939255 344.433655,253.569839 
	C347.081421,249.421112 350.071381,245.574280 352.126678,241.280121 
	C354.183197,236.983398 355.305542,232.239548 356.664032,228.206360 
	C363.139740,230.096161 369.723114,232.463959 376.510162,233.785065 
	C379.348236,234.337479 382.635559,232.735519 385.689148,231.991959 
	C390.599945,230.796158 395.725494,230.063965 400.326599,228.113083 
	C407.137695,225.225143 413.390228,224.479172 420.842346,226.572449 
	C429.012604,228.867462 437.880066,229.988632 446.246613,226.082947 
	C449.662750,224.488205 452.965912,222.652451 456.371216,221.033112 
	C465.205231,216.832291 469.997711,208.981033 473.889343,200.709305 
	C477.731750,192.542160 478.420776,183.651642 478.083344,174.599014 
	C477.681000,163.804932 473.763519,154.523804 467.541687,145.950531 
	C466.835663,144.977707 466.256470,142.667007 466.716949,142.278458 
	C474.991302,135.296387 476.339508,125.965584 475.995789,116.009346 
	C475.634064,105.532219 470.038300,97.848282 462.510040,91.323532 
	C460.513977,89.593552 458.155914,88.027229 455.692108,87.146729 
	C451.299225,85.576836 446.699188,84.586739 442.045776,83.315948 
	C445.840546,74.732048 443.746826,66.732689 439.878876,59.160255 
	C438.622681,56.700912 435.149261,55.429840 433.680206,53.013283 
	C428.728210,44.867496 419.951263,44.433510 412.277222,42.159283 
	C405.246521,40.075699 398.754486,44.480862 391.947845,45.586922 
	C391.335724,45.686398 390.729523,46.120598 390.223724,46.527561 
	C387.119629,49.024982 384.045258,51.559338 380.935883,54.101933 
	C376.429718,51.103863 372.463562,47.479557 367.795532,45.578518 
	C359.770752,42.310406 351.624115,38.885204 342.641479,38.997807 
	C330.247589,39.153175 319.028351,41.584015 308.400757,49.291615 
	C300.708588,54.870304 297.555237,62.397991 293.033386,69.653084 
	C242.163559,49.338924 189.452744,104.710297 205.211136,156.843628 
	C199.139282,160.026291 192.664429,162.446869 187.380997,166.442764 
	C181.164246,171.144516 176.834518,177.802383 175.030563,185.633804 
	C173.823181,190.875427 171.775452,196.351807 172.348694,201.471802 
	C173.146896,208.600937 173.912781,216.169830 178.715225,222.302383 
	C179.130341,222.832504 178.920547,224.321533 178.460464,224.996796 
	C171.982681,234.504120 171.294754,244.391235 176.585907,255.369156 
	C171.870407,255.588486 167.449020,255.883926 163.023407,255.976181 
	C158.025665,256.080353 152.949814,255.490738 148.053238,256.202454 
	C145.298843,256.602814 141.450195,258.424500 140.499786,260.638428 
	C137.426392,267.797577 138.562164,275.208832 143.785721,281.018127 
	C147.101944,284.706238 146.027496,286.772980 143.593811,290.053223 
	C138.388351,297.069397 133.242203,304.197357 128.859009,311.737183 
	C124.255905,319.655243 120.285622,327.988403 118.875420,337.250244 
	C117.988716,343.073853 116.352440,348.851837 116.118347,354.693024 
	C115.482018,370.571320 117.765564,385.986237 125.607559,400.146576 
	C129.068268,406.395599 132.708755,412.544952 136.186035,418.785004 
	C136.652328,419.621796 136.638184,420.726288 137.101089,422.904968 
	C132.023132,419.905853 128.010986,417.536224 123.402031,414.871552 
	C122.601471,414.636536 121.800911,414.401520 120.386566,413.780579 
	C116.970291,410.751312 113.838417,407.269257 110.024216,404.873535 
	C107.950195,403.570892 104.716637,404.114349 101.374763,404.167175 
M113.000084,123.497314 
	C113.115845,119.003983 113.228531,114.918762 115.681313,110.466209 
	C121.102623,100.624825 129.145279,94.996468 139.463684,92.085144 
	C143.661591,90.900719 147.650436,92.646187 151.845291,93.640350 
	C158.967087,95.328163 163.699875,99.883316 166.312637,105.334839 
	C170.151047,113.343613 171.228302,121.972412 163.998413,129.908752 
	C160.996582,133.203888 158.374939,133.680557 155.095001,132.386688 
	C151.551056,130.988678 151.149643,128.009872 152.693741,124.639610 
	C153.087723,123.779709 153.015594,122.698769 153.120972,121.715446 
	C153.588181,117.355400 151.150757,115.586830 146.878830,116.469917 
	C143.012527,117.269150 142.174133,119.898537 141.408203,123.061493 
	C139.791122,129.739227 143.073425,139.943542 147.960953,141.873718 
	C158.499756,146.035736 164.833618,145.256760 173.198853,137.155090 
	C175.243240,135.175095 177.352966,132.406845 177.748352,129.750336 
	C178.698517,123.366272 179.287796,116.782936 178.779556,110.378654 
	C178.442001,106.125275 175.819916,102.086655 174.470520,97.871834 
	C172.695694,92.328148 168.994537,88.389145 163.906540,86.173180 
	C159.386215,84.204437 154.458923,83.128021 149.660187,81.849457 
	C139.576508,79.162796 130.224091,81.976654 121.746246,86.989426 
	C112.036819,92.730400 106.181541,102.067207 103.358414,112.715179 
	C100.533485,123.369957 100.914513,134.064148 107.716576,143.689865 
	C109.503410,146.218430 111.055855,149.116913 111.871422,152.078110 
	C113.001625,156.181671 112.470253,160.905167 114.202782,164.643799 
	C117.040443,170.767166 120.165474,177.429276 127.393814,179.619461 
	C136.041260,182.239655 144.896683,184.173477 154.118195,186.520691 
	C153.917236,190.101669 154.162247,193.637543 153.438797,196.962738 
	C151.985519,203.642609 155.507187,211.631287 161.022690,215.177811 
	C162.919815,216.397675 166.723099,216.693100 168.512299,215.577393 
	C171.419754,213.764389 170.012314,211.005310 168.089478,208.392395 
	C165.994446,205.545486 164.023834,202.233932 163.326569,198.851288 
	C162.783646,196.217438 164.405533,193.183411 164.835052,190.293015 
	C165.609314,185.082764 161.444702,177.284103 157.167999,176.168686 
	C152.424301,174.931473 147.574707,174.106796 142.803726,172.966522 
	C131.405914,170.242416 122.176849,165.445419 123.773560,150.969391 
	C124.093704,148.066910 122.316795,143.963760 120.107887,141.944427 
	C114.768929,137.063660 112.295929,131.537048 113.000084,123.497314 
M376.996552,436.490509 
	C383.673706,428.841949 392.373108,424.306488 400.940094,419.306427 
	C401.353821,423.981445 401.655884,427.394623 401.934204,430.539307 
	C409.048706,432.488403 412.393005,427.631561 414.750244,423.819977 
	C418.111176,418.385437 419.860260,411.919983 422.024292,405.798157 
	C422.767181,403.696625 423.138947,401.255554 422.898926,399.054810 
	C422.235840,392.975403 419.292267,391.835327 413.631683,395.017395 
	C411.954712,395.960144 410.906586,397.959991 409.314148,399.125366 
	C402.460114,404.141174 395.967377,409.918396 388.487946,413.748352 
	C377.602905,419.322205 368.531677,426.307831 362.988220,437.319153 
	C362.155640,438.973022 361.735168,441.271118 362.177277,443.002228 
	C362.586823,444.605896 364.178925,446.280334 365.695282,447.083679 
	C366.555359,447.539368 368.732391,446.693085 369.581451,445.762634 
	C372.080688,443.023804 374.213013,439.950226 376.996552,436.490509 
M135.623215,201.184326 
	C135.195923,200.675644 134.550323,200.232132 134.375961,199.647949 
	C133.002838,195.047592 129.591232,193.667496 125.291397,194.048782 
	C120.043381,194.514160 114.828613,195.863220 113.321709,201.649521 
	C111.779160,207.572647 111.437439,213.798492 116.125084,218.812469 
	C119.144890,222.042496 123.315826,222.853210 127.354866,221.837570 
	C131.021973,220.915451 135.909317,220.227524 136.559341,215.614822 
	C137.186096,211.167068 136.231033,206.496384 135.623215,201.184326 
M198.353104,58.179100 
	C195.734863,64.403641 196.463593,69.500427 201.389725,72.671288 
	C204.510071,74.679802 208.179764,75.083214 212.353516,74.267418 
	C217.043488,73.350731 219.135635,70.942352 220.522110,66.994896 
	C222.149612,62.361233 223.334656,57.897808 219.259384,53.701027 
	C213.068954,47.326054 204.404724,48.895966 198.353104,58.179100 
M204.453049,432.086273 
	C203.694473,438.961884 207.758270,443.924438 211.559616,448.775940 
	C212.508362,449.986755 215.908752,450.647705 217.237305,449.894501 
	C219.737488,448.477051 218.900223,446.854340 216.765671,444.582306 
	C214.338608,441.998871 213.657272,437.845093 211.877884,434.557526 
	C210.792480,432.552185 209.067780,430.892883 207.630219,429.078125 
	C206.718460,429.866547 205.806717,430.654999 204.453049,432.086273 
M314.796204,429.091736 
	C311.400421,432.365082 307.874817,435.520538 304.711609,439.005035 
	C304.028534,439.757507 304.130096,442.134186 304.824738,442.956146 
	C305.456024,443.703217 307.786194,443.961945 308.672546,443.379150 
	C312.153290,441.090576 315.348358,438.369873 318.670471,435.837097 
	C322.615540,432.829346 323.288483,429.669250 319.193420,426.235443 
	C317.969421,427.156464 316.745422,428.077484 314.796204,429.091736 
z"/>
<path fill="#D9D9D9" opacity="1.000000" stroke="none" 
	d="
M115.156242,425.007385 
	C117.620369,429.327820 120.256500,433.562988 122.461388,438.011902 
	C123.307739,439.719604 123.170624,441.914734 123.481628,443.887756 
	C121.450722,444.164307 119.010849,445.280304 117.478386,444.533752 
	C114.720955,443.190369 112.507568,440.730255 110.418907,438.482849 
	C113.259529,438.841187 114.941711,438.371094 114.409401,434.738037 
	C112.902847,435.507446 111.396301,436.276855 109.889748,437.046265 
	C106.644386,435.728821 104.790169,433.466003 105.176224,429.180420 
	C106.465172,427.098755 108.285072,425.760040 108.515213,424.188477 
	C109.417328,418.028076 112.787125,417.219757 117.858673,419.130829 
	C118.002144,419.184845 118.316444,418.785522 119.387878,417.927490 
	C115.401573,415.187073 111.835747,412.329681 107.893150,410.155548 
	C104.810745,408.455811 103.557304,409.682678 103.865479,413.461853 
	C104.149147,416.940460 103.261742,420.514526 102.890213,424.046539 
	C101.939430,418.994690 100.988655,413.942871 100.345848,408.219635 
	C101.104568,406.307220 101.555328,405.066162 102.006088,403.825134 
	C104.716637,404.114349 107.950195,403.570892 110.024216,404.873535 
	C113.838417,407.269257 116.970291,410.751312 120.795700,414.205933 
	C122.136177,414.809753 123.067520,414.988159 123.998856,415.166595 
	C128.010986,417.536224 132.023132,419.905853 137.101089,422.904968 
	C136.638184,420.726288 136.652328,419.621796 136.186035,418.785004 
	C132.708755,412.544952 129.068268,406.395599 125.607559,400.146576 
	C117.765564,385.986237 115.482018,370.571320 116.118347,354.693024 
	C116.352440,348.851837 117.988716,343.073853 118.875420,337.250244 
	C120.285622,327.988403 124.255905,319.655243 128.859009,311.737183 
	C133.242203,304.197357 138.388351,297.069397 143.593811,290.053223 
	C146.027496,286.772980 147.101944,284.706238 143.785721,281.018127 
	C138.562164,275.208832 137.426392,267.797577 140.499786,260.638428 
	C141.450195,258.424500 145.298843,256.602814 148.053238,256.202454 
	C152.949814,255.490738 158.025665,256.080353 163.023407,255.976181 
	C167.449020,255.883926 171.870407,255.588486 176.585907,255.369156 
	C171.294754,244.391235 171.982681,234.504120 178.460464,224.996796 
	C178.920547,224.321533 179.130341,222.832504 178.715225,222.302383 
	C173.912781,216.169830 173.146896,208.600937 172.348694,201.471802 
	C171.775452,196.351807 173.823181,190.875427 175.030563,185.633804 
	C176.834518,177.802383 181.164246,171.144516 187.380997,166.442764 
	C192.664429,162.446869 199.139282,160.026291 205.211136,156.843628 
	C189.452744,104.710297 242.163559,49.338924 293.033386,69.653084 
	C297.555237,62.397991 300.708588,54.870304 308.400757,49.291615 
	C319.028351,41.584015 330.247589,39.153175 342.641479,38.997807 
	C351.624115,38.885204 359.770752,42.310406 367.795532,45.578518 
	C372.463562,47.479557 376.429718,51.103863 380.935883,54.101933 
	C384.045258,51.559338 387.119629,49.024982 390.223724,46.527561 
	C390.729523,46.120598 391.335724,45.686398 391.947845,45.586922 
	C398.754486,44.480862 405.246521,40.075699 412.277222,42.159283 
	C419.951263,44.433510 428.728210,44.867496 433.680206,53.013283 
	C435.149261,55.429840 438.622681,56.700912 439.878876,59.160255 
	C443.746826,66.732689 445.840546,74.732048 442.045776,83.315948 
	C446.699188,84.586739 451.299225,85.576836 455.692108,87.146729 
	C458.155914,88.027229 460.513977,89.593552 462.510040,91.323532 
	C470.038300,97.848282 475.634064,105.532219 475.995789,116.009346 
	C476.339508,125.965584 474.991302,135.296387 466.716949,142.278458 
	C466.256470,142.667007 466.835663,144.977707 467.541687,145.950531 
	C473.763519,154.523804 477.681000,163.804932 478.083344,174.599014 
	C478.420776,183.651642 477.731750,192.542160 473.889343,200.709305 
	C469.997711,208.981033 465.205231,216.832291 456.371216,221.033112 
	C452.965912,222.652451 449.662750,224.488205 446.246613,226.082947 
	C437.880066,229.988632 429.012604,228.867462 420.842346,226.572449 
	C413.390228,224.479172 407.137695,225.225143 400.326599,228.113083 
	C395.725494,230.063965 390.599945,230.796158 385.689148,231.991959 
	C382.635559,232.735519 379.348236,234.337479 376.510162,233.785065 
	C369.723114,232.463959 363.139740,230.096161 356.664032,228.206360 
	C355.305542,232.239548 354.183197,236.983398 352.126678,241.280121 
	C350.071381,245.574280 347.081421,249.421112 344.433655,253.569839 
	C347.683807,253.939255 351.604553,254.672653 355.536835,254.740936 
	C358.692505,254.795746 359.883759,256.945160 359.769867,259.000793 
	C359.462646,264.546875 358.463196,270.055237 357.703491,275.573761 
	C357.665741,275.847748 357.300812,276.079285 357.082275,276.325287 
	C355.417633,278.199646 352.587860,279.997345 352.460022,281.970428 
	C352.360657,283.503906 355.600464,285.288635 357.407043,286.904755 
	C366.239807,294.806274 373.455139,304.132050 378.620667,314.639679 
	C382.938293,323.422546 385.494873,333.000916 387.091797,342.828156 
	C390.180359,361.834564 387.046631,380.133331 379.697510,397.371307 
	C373.307434,412.359711 364.602905,426.329254 351.111877,436.452026 
	C345.286682,440.822906 339.772003,445.721130 333.525513,449.367798 
	C330.527863,451.117828 326.149353,450.821991 322.414032,450.729767 
	C321.630676,450.710388 320.039032,447.312805 320.382629,445.835327 
	C320.965851,443.327240 322.791748,441.108154 324.581696,438.637024 
	C326.420197,437.940857 328.359680,437.758911 329.023010,436.743378 
	C331.907990,432.326721 334.458252,427.688232 337.060791,423.091095 
	C340.779053,416.523102 340.767700,409.192261 341.092682,401.976227 
	C341.135956,401.014893 339.841583,399.993286 339.166748,398.999573 
	C339.018799,396.763184 338.870850,394.526794 338.659821,391.337006 
	C333.067932,399.767731 328.573944,407.772064 322.857483,414.779114 
	C318.149597,420.549866 312.134247,425.303741 306.426819,430.191223 
	C302.771973,433.320984 298.843933,436.283691 294.625336,438.553833 
	C291.394348,440.292542 287.578735,441.203430 283.911896,441.809418 
	C279.145081,442.597168 276.160522,438.123596 277.102661,432.674561 
	C277.687958,429.289368 278.031250,425.785522 277.798370,422.381744 
	C277.726776,421.335876 274.709229,419.335968 274.195465,419.651764 
	C267.917389,423.510529 261.250092,427.072571 255.929016,432.044342 
	C251.743164,435.955383 247.856689,440.783844 246.902267,447.173309 
	C246.120667,452.405701 242.773972,453.711670 237.953400,451.992554 
	C227.517776,448.270935 220.058289,440.811646 214.038406,432.137421 
	C210.956253,427.696289 210.031708,421.777679 207.985764,416.584412 
	C207.434250,415.184418 206.348007,413.995148 205.459396,412.636017 
	C198.919662,421.925690 198.487549,431.763123 199.132767,441.612732 
	C199.458771,446.588989 200.813721,451.592224 202.379181,456.361481 
	C203.527740,459.860596 202.595154,462.575012 198.957809,462.967285 
	C197.973785,463.073395 196.790314,463.276947 195.992798,462.865326 
	C187.725632,458.598358 179.426865,454.377625 171.324402,449.811310 
	C164.915894,446.199677 158.769028,442.123810 151.449051,437.601105 
	C152.953568,441.258179 154.058105,443.993958 155.204391,446.712128 
	C156.027130,448.663086 157.148941,450.522522 157.713104,452.541351 
	C159.324661,458.308350 157.945053,459.960510 151.332169,459.606201 
	C149.931686,458.499908 149.048950,457.749603 148.166229,456.999298 
	C144.193344,451.210602 140.220474,445.421875 136.296204,439.001160 
	C136.229874,436.912750 136.114944,435.456360 136.240234,433.806274 
	C136.148224,431.766693 136.456573,429.230743 135.357758,428.210815 
	C132.602615,425.653595 130.115250,421.836731 125.075874,423.509552 
	C126.584518,425.474121 128.596741,426.684906 130.327759,428.214020 
	C132.346771,429.997467 134.120087,432.059082 135.751144,434.164581 
	C134.989227,434.926544 134.476181,435.523926 133.963120,436.121277 
	C128.080582,432.190216 122.198036,428.259155 115.811890,424.286621 
	C114.616158,423.995972 113.924026,423.746735 113.231903,423.497528 
	C113.169655,423.730560 113.107407,423.963593 113.045158,424.196625 
	C113.748856,424.466888 114.452545,424.737122 115.156242,425.007385 
M349.784119,264.838837 
	C348.261444,264.559540 346.731934,264.007141 345.217255,264.045288 
	C335.457092,264.291107 325.701874,264.886414 315.941925,264.961914 
	C262.763794,265.373108 209.584793,265.666718 156.406097,266.000824 
	C154.909012,266.010223 153.399673,265.910919 151.920135,266.076935 
	C151.205032,266.157166 150.545929,266.736481 149.935577,267.023956 
	C149.935577,267.023956 150.000580,266.949127 149.356750,267.304169 
	C149.809082,274.345093 155.591614,279.246643 162.048737,278.099670 
	C162.859482,277.955658 163.708664,278.013885 164.540344,278.003754 
	C192.132690,277.667267 219.724945,277.322723 247.317474,277.002991 
	C277.241638,276.656158 307.165527,276.257263 337.090759,276.057312 
	C343.805817,276.012421 348.488708,272.446350 349.421051,265.421082 
	C349.421051,265.421082 349.458313,265.415222 349.784119,264.838837 
M339.978973,288.359314 
	C339.978973,288.359314 339.957489,287.885406 339.436646,287.217102 
	C337.445007,287.144348 335.452698,286.992645 333.461853,287.010590 
	C298.228943,287.328156 262.995697,287.621216 227.763611,288.016510 
	C205.514069,288.266113 183.266281,288.672729 161.017975,289.026489 
	C160.524078,289.034363 160.033554,289.253967 159.541458,289.374817 
	C159.566544,289.638947 159.591629,289.903107 159.616714,290.167236 
	C166.744263,290.167236 173.871796,290.167236 180.999359,290.500000 
	C180.999359,290.500000 180.999298,290.832764 180.069992,290.962433 
	C173.572479,290.975739 167.073807,290.927612 160.578400,291.051331 
	C159.186813,291.077850 157.285645,291.271393 156.507019,292.163147 
	C151.663376,297.710632 146.278458,303.013977 142.602295,309.293518 
	C138.180435,316.846832 135.604584,325.454803 131.641785,333.309692 
	C127.074097,342.363617 125.590866,352.156952 126.277802,361.769653 
	C127.402603,377.509583 131.065384,392.754730 141.663864,405.457916 
	C145.285339,409.798584 147.524902,415.336823 151.328339,419.469788 
	C156.105713,424.661041 161.591110,429.301392 167.234406,433.566284 
	C172.705460,437.701080 178.763504,441.059143 185.803543,445.549011 
	C186.343292,441.470062 186.881943,438.994263 186.963303,436.503540 
	C187.284866,426.658661 189.048874,417.078522 194.022675,408.563263 
	C196.592667,404.163361 200.924103,400.831421 204.002914,396.678345 
	C206.939636,392.716888 210.364044,392.780853 214.479279,393.987762 
	C218.451904,395.152893 216.953323,398.313660 216.920609,400.619965 
	C216.695221,416.512177 223.341888,428.749786 237.009583,438.617767 
	C238.481064,436.796906 240.558044,435.149994 241.403854,433.015289 
	C244.537048,425.107544 251.968018,421.621582 258.144287,417.319702 
	C262.463409,414.311310 266.028473,411.010620 268.535706,406.770874 
	C270.646484,403.201569 273.567413,402.042633 276.695587,403.210754 
	C279.438873,404.235138 282.678650,406.513519 283.703247,409.045654 
	C286.215790,415.254944 287.576477,421.930328 289.353851,428.251892 
	C290.766815,427.489929 293.091766,426.694489 294.841034,425.217285 
	C305.035400,416.608673 315.611877,408.304077 321.562286,395.830811 
	C324.217987,390.263885 326.370056,384.387177 329.641876,379.214813 
	C331.137970,376.849670 335.021057,374.207916 337.416901,374.547394 
	C343.576813,375.420319 347.542480,381.241913 348.492950,386.183685 
	C349.972443,393.875793 348.994476,402.149780 348.298309,410.110748 
	C347.872284,414.982483 346.026306,419.730072 344.501404,425.792145 
	C346.411011,424.587128 347.202576,424.305542 347.680908,423.752899 
	C354.455170,415.925903 361.502350,408.275391 366.011810,398.805237 
	C369.036072,392.454132 373.045074,386.248871 374.471375,379.524048 
	C377.917023,363.278107 379.181763,347.084869 372.434418,330.799438 
	C369.153687,322.880951 366.062958,314.944885 360.589325,308.591644 
	C354.408569,301.417633 346.919891,295.370453 339.978973,288.359314 
M324.230560,252.898346 
	C326.989288,251.528839 330.173096,250.650818 332.428925,248.699829 
	C339.908752,242.230850 346.580627,235.182327 345.052979,223.965271 
	C344.696533,221.347839 344.993225,218.640411 345.002319,215.974442 
	C345.021362,210.382080 348.034851,208.114822 353.150452,210.239838 
	C354.867188,210.952972 355.956635,213.047989 357.597015,214.098984 
	C361.390198,216.529266 365.248627,220.436707 369.252472,220.659729 
	C380.714417,221.298233 392.456757,222.774292 402.834961,214.774536 
	C415.157898,205.275772 426.881195,195.870834 425.020081,177.996384 
	C424.865601,176.512558 425.203827,174.961029 424.939209,173.509094 
	C424.592407,171.605713 424.396851,169.308197 423.226868,167.983139 
	C417.317657,161.290588 410.053101,156.791885 401.173767,154.824234 
	C399.552765,154.465012 397.263458,151.950897 397.257080,150.423309 
	C397.236023,145.370209 403.518982,142.345947 407.944702,144.835022 
	C408.880402,145.361267 409.909363,145.917862 410.944916,146.039764 
	C420.675598,147.185349 426.437531,154.455795 431.697235,161.121597 
	C438.983612,170.355927 438.176910,182.152542 435.522919,192.618973 
	C433.313995,201.330185 429.161865,210.159332 419.091980,215.881302 
	C433.062073,217.860321 444.720459,217.777496 454.558014,208.047867 
	C462.702728,199.992554 467.370850,190.546707 466.856598,179.138809 
	C466.577667,172.951218 465.946259,166.326752 463.439728,160.826294 
	C461.169556,155.844482 456.210327,152.053787 452.305206,147.860413 
	C447.973663,143.209106 449.378235,138.325027 455.015106,135.820282 
	C458.313202,134.354752 462.026733,131.685364 463.460602,128.588562 
	C466.926483,121.103401 465.938538,113.157585 461.351318,106.343544 
	C459.099792,102.999039 455.348938,100.590042 452.062836,98.032372 
	C446.529724,93.725716 439.925415,95.167549 433.643127,95.002060 
	C427.573303,94.842163 424.993042,90.367355 427.989227,85.115120 
	C428.717621,83.838287 429.457062,82.539276 430.385559,81.410110 
	C433.901825,77.133972 433.905884,71.145203 430.723175,66.811073 
	C426.467773,61.016102 421.761932,55.631561 414.371552,54.437328 
	C408.249329,53.448013 401.725159,52.696663 396.193817,56.703819 
	C392.634460,59.282398 389.458099,62.399982 386.178192,65.351669 
	C380.727020,70.257378 379.747559,70.313957 374.390930,64.847664 
	C369.402313,59.756920 363.595978,55.558815 357.104858,53.128426 
	C344.618713,48.453407 332.292358,47.850819 319.926880,55.261787 
	C310.940796,60.647438 305.792786,68.403893 302.251831,77.458679 
	C300.850372,81.042435 299.264252,82.465332 295.922394,81.931625 
	C292.715179,81.419411 289.313782,80.917709 286.485229,79.463264 
	C277.663208,74.926964 268.355255,76.144798 259.638092,78.134407 
	C252.067612,79.862297 244.517822,82.569550 238.711014,89.271820 
	C233.997528,94.712158 228.165649,99.095528 223.963470,105.294731 
	C216.596558,116.162651 212.261841,127.826393 213.180466,140.873215 
	C213.632309,147.290588 215.933517,153.585037 217.476456,159.915955 
	C218.660294,164.773407 217.712570,165.819443 212.993042,167.112961 
	C207.969437,168.489822 202.134232,169.499466 198.499374,172.740021 
	C193.075409,177.575577 188.964050,184.021271 184.858490,190.159332 
	C180.691208,196.389633 183.398788,211.775467 188.874573,215.967453 
	C196.822342,222.051865 196.986465,224.524536 189.911743,231.586975 
	C189.322220,232.175461 188.831161,232.942856 188.129852,233.326202 
	C183.196472,236.022812 183.061478,240.762085 184.288132,244.978165 
	C186.565750,252.806442 189.833145,254.987839 196.773315,254.995468 
	C210.436554,255.010498 224.100830,255.106659 237.762848,254.977005 
	C264.866119,254.719803 291.968506,254.354523 319.069794,253.938828 
	C320.574188,253.915756 322.065308,253.028900 323.513367,252.579132 
	C323.513367,252.579132 323.558411,252.565765 324.230560,252.898346 
M146.418823,440.049622 
	C145.892426,440.313873 145.366028,440.578156 144.839630,440.842438 
	C147.058319,444.763214 149.277008,448.683990 151.495697,452.604767 
	C152.100189,452.249542 152.704697,451.894348 153.309189,451.539124 
	C151.198166,447.776276 149.087143,444.013458 146.418823,440.049622 
M141.178009,435.198792 
	C141.320343,435.839844 141.462662,436.480896 141.604996,437.121948 
	C142.014709,436.999390 142.424408,436.876801 142.834137,436.754242 
	C142.415451,436.202148 141.996750,435.650055 141.178009,435.198792 
z"/>
<path fill="#D9D9D9" opacity="1.000000" stroke="none" 
	d="
M113.000122,123.974876 
	C112.295929,131.537048 114.768929,137.063660 120.107887,141.944427 
	C122.316795,143.963760 124.093704,148.066910 123.773560,150.969391 
	C122.176849,165.445419 131.405914,170.242416 142.803726,172.966522 
	C147.574707,174.106796 152.424301,174.931473 157.167999,176.168686 
	C161.444702,177.284103 165.609314,185.082764 164.835052,190.293015 
	C164.405533,193.183411 162.783646,196.217438 163.326569,198.851288 
	C164.023834,202.233932 165.994446,205.545486 168.089478,208.392395 
	C170.012314,211.005310 171.419754,213.764389 168.512299,215.577393 
	C166.723099,216.693100 162.919815,216.397675 161.022690,215.177811 
	C155.507187,211.631287 151.985519,203.642609 153.438797,196.962738 
	C154.162247,193.637543 153.917236,190.101669 154.118195,186.520691 
	C144.896683,184.173477 136.041260,182.239655 127.393814,179.619461 
	C120.165474,177.429276 117.040443,170.767166 114.202782,164.643799 
	C112.470253,160.905167 113.001625,156.181671 111.871422,152.078110 
	C111.055855,149.116913 109.503410,146.218430 107.716576,143.689865 
	C100.914513,134.064148 100.533485,123.369957 103.358414,112.715179 
	C106.181541,102.067207 112.036819,92.730400 121.746246,86.989426 
	C130.224091,81.976654 139.576508,79.162796 149.660187,81.849457 
	C154.458923,83.128021 159.386215,84.204437 163.906540,86.173180 
	C168.994537,88.389145 172.695694,92.328148 174.470520,97.871834 
	C175.819916,102.086655 178.442001,106.125275 178.779556,110.378654 
	C179.287796,116.782936 178.698517,123.366272 177.748352,129.750336 
	C177.352966,132.406845 175.243240,135.175095 173.198853,137.155090 
	C164.833618,145.256760 158.499756,146.035736 147.960953,141.873718 
	C143.073425,139.943542 139.791122,129.739227 141.408203,123.061493 
	C142.174133,119.898537 143.012527,117.269150 146.878830,116.469917 
	C151.150757,115.586830 153.588181,117.355400 153.120972,121.715446 
	C153.015594,122.698769 153.087723,123.779709 152.693741,124.639610 
	C151.149643,128.009872 151.551056,130.988678 155.095001,132.386688 
	C158.374939,133.680557 160.996582,133.203888 163.998413,129.908752 
	C171.228302,121.972412 170.151047,113.343613 166.312637,105.334839 
	C163.699875,99.883316 158.967087,95.328163 151.845291,93.640350 
	C147.650436,92.646187 143.661591,90.900719 139.463684,92.085144 
	C129.145279,94.996468 121.102623,100.624825 115.681313,110.466209 
	C113.228531,114.918762 113.115845,119.003983 113.000122,123.974876 
z"/>
<path fill="#D9D9D9" opacity="1.000000" stroke="none" 
	d="
M376.742737,436.749084 
	C374.213013,439.950226 372.080688,443.023804 369.581451,445.762634 
	C368.732391,446.693085 366.555359,447.539368 365.695282,447.083679 
	C364.178925,446.280334 362.586823,444.605896 362.177277,443.002228 
	C361.735168,441.271118 362.155640,438.973022 362.988220,437.319153 
	C368.531677,426.307831 377.602905,419.322205 388.487946,413.748352 
	C395.967377,409.918396 402.460114,404.141174 409.314148,399.125366 
	C410.906586,397.959991 411.954712,395.960144 413.631683,395.017395 
	C419.292267,391.835327 422.235840,392.975403 422.898926,399.054810 
	C423.138947,401.255554 422.767181,403.696625 422.024292,405.798157 
	C419.860260,411.919983 418.111176,418.385437 414.750244,423.819977 
	C412.393005,427.631561 409.048706,432.488403 401.934204,430.539307 
	C401.655884,427.394623 401.353821,423.981445 400.940094,419.306427 
	C392.373108,424.306488 383.673706,428.841949 376.742737,436.749084 
z"/>
<path fill="#D9D9D9" opacity="1.000000" stroke="none" 
	d="
M135.797058,201.553986 
	C136.231033,206.496384 137.186096,211.167068 136.559341,215.614822 
	C135.909317,220.227524 131.021973,220.915451 127.354866,221.837570 
	C123.315826,222.853210 119.144890,222.042496 116.125084,218.812469 
	C111.437439,213.798492 111.779160,207.572647 113.321709,201.649521 
	C114.828613,195.863220 120.043381,194.514160 125.291397,194.048782 
	C129.591232,193.667496 133.002838,195.047592 134.375961,199.647949 
	C134.550323,200.232132 135.195923,200.675644 135.797058,201.553986 
z"/>
<path fill="#D9D9D9" opacity="1.000000" stroke="none" 
	d="
M198.598053,57.872795 
	C204.404724,48.895966 213.068954,47.326054 219.259384,53.701027 
	C223.334656,57.897808 222.149612,62.361233 220.522110,66.994896 
	C219.135635,70.942352 217.043488,73.350731 212.353516,74.267418 
	C208.179764,75.083214 204.510071,74.679802 201.389725,72.671288 
	C196.463593,69.500427 195.734863,64.403641 198.598053,57.872795 
z"/>
<path fill="#D9D9D9" opacity="1.000000" stroke="none" 
	d="
M339.102295,399.431152 
	C339.841583,399.993286 341.135956,401.014893 341.092682,401.976227 
	C340.767700,409.192261 340.779053,416.523102 337.060791,423.091095 
	C334.458252,427.688232 331.907990,432.326721 329.023010,436.743378 
	C328.359680,437.758911 326.420197,437.940857 324.807739,438.328491 
	C326.870453,434.321411 329.289276,430.543427 331.395416,426.598450 
	C331.659729,426.103333 330.484467,424.246368 329.608887,423.866028 
	C328.039185,423.184265 326.190308,423.145325 324.530853,422.850647 
	C323.900543,418.309113 326.079315,413.531921 328.625702,414.272095 
	C330.532593,414.826355 331.793396,417.603333 333.589294,419.676300 
	C338.522308,414.753387 337.987885,407.048004 339.102295,399.431152 
z"/>
<path fill="#D8D8D8" opacity="1.000000" stroke="none" 
	d="
M204.674011,431.764862 
	C205.806717,430.654999 206.718460,429.866547 207.630219,429.078125 
	C209.067780,430.892883 210.792480,432.552185 211.877884,434.557526 
	C213.657272,437.845093 214.338608,441.998871 216.765671,444.582306 
	C218.900223,446.854340 219.737488,448.477051 217.237305,449.894501 
	C215.908752,450.647705 212.508362,449.986755 211.559616,448.775940 
	C207.758270,443.924438 203.694473,438.961884 204.674011,431.764862 
z"/>
<path fill="#D9D9D9" opacity="1.000000" stroke="none" 
	d="
M315.158813,429.045135 
	C316.745422,428.077484 317.969421,427.156464 319.186951,426.235352 
	C323.288483,429.669250 322.615540,432.829346 318.670471,435.837097 
	C315.348358,438.369873 312.153290,441.090576 308.672546,443.379150 
	C307.786194,443.961945 305.456024,443.703217 304.824738,442.956146 
	C304.130096,442.134186 304.028534,439.757507 304.711609,439.005035 
	C307.874817,435.520538 311.400421,432.365082 315.158813,429.045135 
z"/>
<path fill="#D9D9D9" opacity="1.000000" stroke="none" 
	d="
M102.934616,424.399292 
	C103.261742,420.514526 104.149147,416.940460 103.865479,413.461853 
	C103.557304,409.682678 104.810745,408.455811 107.893150,410.155548 
	C111.835747,412.329681 115.401573,415.187073 119.387878,417.927490 
	C118.316444,418.785522 118.002144,419.184845 117.858673,419.130829 
	C112.787125,417.219757 109.417328,418.028076 108.515213,424.188477 
	C108.285072,425.760040 106.465172,427.098755 105.135025,428.797516 
	C104.255913,427.617737 103.617462,426.184906 102.934616,424.399292 
z"/>
<path fill="#D9D9D9" opacity="1.000000" stroke="none" 
	d="
M109.951065,437.294861 
	C111.396301,436.276855 112.902847,435.507446 114.409401,434.738037 
	C114.941711,438.371094 113.259529,438.841187 110.468826,438.130402 
	C110.115280,437.869049 110.063828,437.706268 109.951065,437.294861 
z"/>
<path fill="#D9D9D9" opacity="1.000000" stroke="none" 
	d="
M135.751144,434.164581 
	C136.114944,435.456360 136.229874,436.912750 136.255737,438.665833 
	C135.514160,438.200073 134.861649,437.437622 134.086121,436.398224 
	C134.476181,435.523926 134.989227,434.926544 135.751144,434.164581 
z"/>
<path fill="#D9D9D9" opacity="1.000000" stroke="none" 
	d="
M115.338104,424.954010 
	C114.452545,424.737122 113.748856,424.466888 113.045158,424.196625 
	C113.107407,423.963593 113.169655,423.730560 113.231903,423.497528 
	C113.924026,423.746735 114.616158,423.995972 115.531876,424.424377 
	C115.755470,424.603577 115.519974,424.900635 115.338104,424.954010 
z"/>
<path fill="#D9D9D9" opacity="1.000000" stroke="none" 
	d="
M123.700439,415.019073 
	C123.067520,414.988159 122.136177,414.809753 121.102600,414.398926 
	C121.800911,414.401520 122.601471,414.636536 123.700439,415.019073 
z"/>
<path fill="#D9D9D9" opacity="1.000000" stroke="none" 
	d="
M101.690430,403.996155 
	C101.555328,405.066162 101.104568,406.307220 100.410172,407.773743 
	C100.569275,406.721893 100.972015,405.444519 101.690430,403.996155 
z"/>
<path fill="#D9D9D9" opacity="1.000000" stroke="none" 
	d="
M148.194412,457.304932 
	C149.048950,457.749603 149.931686,458.499908 150.907562,459.542023 
	C150.074661,459.092712 149.148621,458.351624 148.194412,457.304932 
z"/>
<path fill="#4C6971" opacity="1.000000" stroke="none" 
	d="
M323.562622,252.544098 
	C322.065308,253.028900 320.574188,253.915756 319.069794,253.938828 
	C291.968506,254.354523 264.866119,254.719803 237.762848,254.977005 
	C224.100830,255.106659 210.436554,255.010498 196.773315,254.995468 
	C189.833145,254.987839 186.565750,252.806442 184.288132,244.978165 
	C183.061478,240.762085 183.196472,236.022812 188.129852,233.326202 
	C188.831161,232.942856 189.322220,232.175461 189.911743,231.586975 
	C196.986465,224.524536 196.822342,222.051865 188.874573,215.967453 
	C183.398788,211.775467 180.691208,196.389633 184.858490,190.159332 
	C188.964050,184.021271 193.075409,177.575577 198.499374,172.740021 
	C202.134232,169.499466 207.969437,168.489822 212.993042,167.112961 
	C217.712570,165.819443 218.660294,164.773407 217.476456,159.915955 
	C215.933517,153.585037 213.632309,147.290588 213.180466,140.873215 
	C212.261841,127.826393 216.596558,116.162651 223.963470,105.294731 
	C228.165649,99.095528 233.997528,94.712158 238.711014,89.271820 
	C244.517822,82.569550 252.067612,79.862297 259.638092,78.134407 
	C268.355255,76.144798 277.663208,74.926964 286.485229,79.463264 
	C289.313782,80.917709 292.715179,81.419411 295.922394,81.931625 
	C299.264252,82.465332 300.850372,81.042435 302.251831,77.458679 
	C305.792786,68.403893 310.940796,60.647438 319.926880,55.261787 
	C332.292358,47.850819 344.618713,48.453407 357.104858,53.128426 
	C363.595978,55.558815 369.402313,59.756920 374.390930,64.847664 
	C379.747559,70.313957 380.727020,70.257378 386.178192,65.351669 
	C389.458099,62.399982 392.634460,59.282398 396.193817,56.703819 
	C401.725159,52.696663 408.249329,53.448013 414.371552,54.437328 
	C421.761932,55.631561 426.467773,61.016102 430.723175,66.811073 
	C433.905884,71.145203 433.901825,77.133972 430.385559,81.410110 
	C429.457062,82.539276 428.717621,83.838287 427.989227,85.115120 
	C424.993042,90.367355 427.573303,94.842163 433.643127,95.002060 
	C439.925415,95.167549 446.529724,93.725716 452.062836,98.032372 
	C455.348938,100.590042 459.099792,102.999039 461.351318,106.343544 
	C465.938538,113.157585 466.926483,121.103401 463.460602,128.588562 
	C462.026733,131.685364 458.313202,134.354752 455.015106,135.820282 
	C449.378235,138.325027 447.973663,143.209106 452.305206,147.860413 
	C456.210327,152.053787 461.169556,155.844482 463.439728,160.826294 
	C465.946259,166.326752 466.577667,172.951218 466.856598,179.138809 
	C467.370850,190.546707 462.702728,199.992554 454.558014,208.047867 
	C444.720459,217.777496 433.062073,217.860321 419.091980,215.881302 
	C429.161865,210.159332 433.313995,201.330185 435.522919,192.618973 
	C438.176910,182.152542 438.983612,170.355927 431.697235,161.121597 
	C426.437531,154.455795 420.675598,147.185349 410.944916,146.039764 
	C409.909363,145.917862 408.880402,145.361267 407.944702,144.835022 
	C403.518982,142.345947 397.236023,145.370209 397.257080,150.423309 
	C397.263458,151.950897 399.552765,154.465012 401.173767,154.824234 
	C410.053101,156.791885 417.317657,161.290588 423.226868,167.983139 
	C424.396851,169.308197 424.592407,171.605713 424.939209,173.509094 
	C425.203827,174.961029 424.865601,176.512558 425.020081,177.996384 
	C426.881195,195.870834 415.157898,205.275772 402.834961,214.774536 
	C392.456757,222.774292 380.714417,221.298233 369.252472,220.659729 
	C365.248627,220.436707 361.390198,216.529266 357.597015,214.098984 
	C355.956635,213.047989 354.867188,210.952972 353.150452,210.239838 
	C348.034851,208.114822 345.021362,210.382080 345.002319,215.974442 
	C344.993225,218.640411 344.696533,221.347839 345.052979,223.965271 
	C346.580627,235.182327 339.908752,242.230850 332.428925,248.699829 
	C330.173096,250.650818 326.989288,251.528839 323.461731,252.557098 
	C312.945312,252.215851 303.197723,252.215851 293.450165,252.215851 
	C293.451202,252.325272 293.452240,252.434677 293.453278,252.544098 
	C303.489746,252.544098 313.526184,252.544098 323.562622,252.544098 
M295.450806,218.996628 
	C300.510071,218.940613 304.521942,216.381302 306.862305,212.358841 
	C309.221741,208.303574 310.402069,203.545349 311.926025,199.036652 
	C312.195984,198.237961 311.752899,197.100235 311.404144,196.211243 
	C310.720154,194.467712 309.614502,192.857910 309.134583,191.071548 
	C307.132202,183.618027 300.501740,178.373123 293.066925,177.929443 
	C287.169464,177.577530 283.053772,181.182770 278.739380,183.963181 
	C272.446136,188.018890 272.546631,194.803574 273.015808,201.375885 
	C273.964325,214.662491 281.525787,220.744370 295.450806,218.996628 
M344.393463,134.000900 
	C336.033112,133.567581 329.384949,138.473526 329.759369,148.433060 
	C330.064087,156.538956 337.657074,161.764908 345.700500,160.262604 
	C351.184601,159.238312 354.003540,156.423599 356.122894,151.527084 
	C358.737762,145.485580 358.900604,142.024307 353.962067,137.706238 
	C351.706512,135.734070 348.199005,135.193741 344.393463,134.000900 
M287.107635,91.031868 
	C283.430634,90.354935 279.766418,89.197624 276.073975,89.099144 
	C267.902130,88.881203 260.588867,91.853836 254.540588,97.189499 
	C251.867798,99.547379 250.128265,103.018433 248.224930,106.142471 
	C247.880753,106.707405 248.597092,108.192131 249.184555,108.984879 
	C250.002167,110.088203 251.159973,110.939407 252.032104,111.765808 
	C256.019592,107.365776 259.744293,102.931297 263.825378,98.853485 
	C267.179962,95.501602 276.955719,95.568535 281.383057,97.300491 
	C285.650482,98.969894 288.981476,104.282219 294.665527,101.426376 
	C295.065796,96.844620 293.736572,94.887451 287.107635,91.031868 
M301.938629,144.157867 
	C300.171722,141.303940 298.276184,139.243011 294.345551,138.847794 
	C287.084503,138.117722 283.326904,144.237015 282.125580,149.556137 
	C280.955627,154.736526 284.777039,158.942352 290.041473,158.999313 
	C298.377808,159.089508 302.005157,154.836472 301.938629,144.157867 
M229.992859,163.918091 
	C231.726929,163.441833 234.153366,163.467331 234.976730,162.331131 
	C235.639664,161.416306 234.291458,159.110672 233.968781,157.397034 
	C233.614914,155.517761 233.089142,153.589218 233.207382,151.718109 
	C233.553101,146.246872 237.316711,143.024612 241.272659,139.866272 
	C242.709198,138.719376 243.548630,136.824600 245.232956,134.471237 
	C229.792572,132.271408 227.815765,142.688995 225.101013,152.011337 
	C223.759140,156.619354 227.062759,160.040161 229.992859,163.918091 
M251.274490,253.997513 
	C253.362305,253.997513 255.450134,253.997513 257.537964,253.997513 
	C257.534729,253.756714 257.531494,253.515900 257.528259,253.275101 
	C236.514328,253.275101 215.500381,253.275101 194.486435,253.275101 
	C194.485519,253.516068 194.484604,253.757050 194.483688,253.998016 
	C213.100662,253.998016 231.717651,253.998016 251.274490,253.997513 
z"/>
<path fill="#4C6971" opacity="1.000000" stroke="none" 
	d="
M180.999344,290.167236 
	C173.871796,290.167236 166.744263,290.167236 159.616714,290.167236 
	C159.591629,289.903107 159.566544,289.638947 159.541458,289.374817 
	C160.033554,289.253967 160.524078,289.034363 161.017975,289.026489 
	C183.266281,288.672729 205.514069,288.266113 227.763611,288.016510 
	C262.995697,287.621216 298.228943,287.328156 333.461853,287.010590 
	C335.452698,286.992645 337.445007,287.144348 339.232971,287.595825 
	C317.888947,287.974518 296.748596,287.974518 275.608215,287.974518 
	C275.609924,288.260773 275.611603,288.546997 275.613312,288.833252 
	C297.075531,288.833252 318.537781,288.833252 340.000000,288.833252 
	C346.919891,295.370453 354.408569,301.417633 360.589325,308.591644 
	C366.062958,314.944885 369.153687,322.880951 372.434418,330.799438 
	C379.181763,347.084869 377.917023,363.278107 374.471375,379.524048 
	C373.045074,386.248871 369.036072,392.454132 366.011810,398.805237 
	C361.502350,408.275391 354.455170,415.925903 347.680908,423.752899 
	C347.202576,424.305542 346.411011,424.587128 344.501404,425.792145 
	C346.026306,419.730072 347.872284,414.982483 348.298309,410.110748 
	C348.994476,402.149780 349.972443,393.875793 348.492950,386.183685 
	C347.542480,381.241913 343.576813,375.420319 337.416901,374.547394 
	C335.021057,374.207916 331.137970,376.849670 329.641876,379.214813 
	C326.370056,384.387177 324.217987,390.263885 321.562286,395.830811 
	C315.611877,408.304077 305.035400,416.608673 294.841034,425.217285 
	C293.091766,426.694489 290.766815,427.489929 289.353851,428.251892 
	C287.576477,421.930328 286.215790,415.254944 283.703247,409.045654 
	C282.678650,406.513519 279.438873,404.235138 276.695587,403.210754 
	C273.567413,402.042633 270.646484,403.201569 268.535706,406.770874 
	C266.028473,411.010620 262.463409,414.311310 258.144287,417.319702 
	C251.968018,421.621582 244.537048,425.107544 241.403854,433.015289 
	C240.558044,435.149994 238.481064,436.796906 237.009583,438.617767 
	C223.341888,428.749786 216.695221,416.512177 216.920609,400.619965 
	C216.953323,398.313660 218.451904,395.152893 214.479279,393.987762 
	C210.364044,392.780853 206.939636,392.716888 204.002914,396.678345 
	C200.924103,400.831421 196.592667,404.163361 194.022675,408.563263 
	C189.048874,417.078522 187.284866,426.658661 186.963303,436.503540 
	C186.881943,438.994263 186.343292,441.470062 185.803543,445.549011 
	C178.763504,441.059143 172.705460,437.701080 167.234406,433.566284 
	C161.591110,429.301392 156.105713,424.661041 151.328339,419.469788 
	C147.524902,415.336823 145.285339,409.798584 141.663864,405.457916 
	C131.065384,392.754730 127.402603,377.509583 126.277802,361.769653 
	C125.590866,352.156952 127.074097,342.363617 131.641785,333.309692 
	C135.604584,325.454803 138.180435,316.846832 142.602295,309.293518 
	C146.278458,303.013977 151.663376,297.710632 156.507019,292.163147 
	C157.285645,291.271393 159.186813,291.077850 160.578400,291.051331 
	C167.073807,290.927612 173.572479,290.975739 180.999176,290.961792 
	C187.807144,290.961151 193.685944,290.961151 199.564728,290.961151 
	C199.565613,290.696503 199.566483,290.431885 199.567368,290.167236 
	C193.378021,290.167236 187.188690,290.167236 180.999344,290.167236 
M149.902985,313.248596 
	C144.191391,319.653534 141.034958,327.401672 139.322098,335.575531 
	C137.413345,344.684113 135.940674,353.945831 135.237198,363.213684 
	C134.970657,366.725464 134.471664,371.589539 140.210953,374.628540 
	C140.896561,371.934265 141.989182,369.746887 141.912445,367.601379 
	C141.402496,353.344666 142.759552,339.495117 150.034485,326.833618 
	C152.837372,321.955353 155.644699,317.042114 158.918030,312.480621 
	C163.550476,306.025177 163.853683,304.537964 159.233963,299.626770 
	C156.106766,303.986542 153.053787,308.242798 149.902985,313.248596 
M147.455856,400.981079 
	C148.375153,401.993164 149.294449,403.005280 150.332855,404.148529 
	C152.900436,398.726318 150.466370,390.727295 145.119324,386.726868 
	C144.054367,385.930145 142.340958,386.000183 140.926529,385.670563 
	C140.932022,387.439270 140.665680,389.264801 141.020340,390.960480 
	C141.367218,392.619049 142.170685,394.258453 143.095291,395.700012 
	C144.186630,397.401550 145.623077,398.881775 147.455856,400.981079 
M211.659561,288.997925 
	C209.268585,288.997925 206.877609,288.997925 204.486633,288.997925 
	C204.494644,289.235565 204.502670,289.473175 204.510681,289.710815 
	C217.831177,289.710815 231.151657,289.710815 244.472137,289.710815 
	C244.473190,289.473175 244.474228,289.235565 244.475281,288.997925 
	C233.855362,288.997925 223.235458,288.997925 211.659561,288.997925 
z"/>
<path fill="#4C6971" opacity="1.000000" stroke="none" 
	d="
M349.456299,265.379578 
	C348.488708,272.446350 343.805817,276.012421 337.090759,276.057312 
	C307.165527,276.257263 277.241638,276.656158 247.317474,277.002991 
	C219.724945,277.322723 192.132690,277.667267 164.540344,278.003754 
	C163.708664,278.013885 162.859482,277.955658 162.048737,278.099670 
	C155.591614,279.246643 149.809082,274.345093 149.716766,267.483978 
	C150.139313,267.818268 150.202026,268.108154 150.264374,268.108093 
	C170.201889,268.083923 190.139389,268.044006 210.076813,267.979980 
	C210.838715,267.977539 211.599869,267.738525 212.361374,267.609741 
	C212.337128,267.436432 212.312897,267.263092 212.288666,267.089783 
	C191.479599,267.089783 170.670532,267.089783 149.861465,267.089783 
	C150.545929,266.736481 151.205032,266.157166 151.920135,266.076935 
	C153.399673,265.910919 154.909012,266.010223 156.406097,266.000824 
	C209.584793,265.666718 262.763794,265.373108 315.941925,264.961914 
	C325.701874,264.886414 335.457092,264.291107 345.217255,264.045288 
	C346.731934,264.007141 348.261444,264.559540 349.198975,264.991119 
	C340.915466,265.143402 333.217102,265.143402 325.518707,265.143402 
	C332.774719,266.456024 340.235138,265.323151 347.447052,266.504547 
	C347.396423,266.976074 347.345795,267.447632 347.295166,267.919189 
	C348.015533,267.072632 348.735931,266.226105 349.456299,265.379578 
M307.465149,266.002014 
	C289.853241,266.002014 272.241364,266.002014 254.629471,266.002014 
	C254.632675,266.224457 254.635880,266.446930 254.639099,266.669373 
	C275.879028,266.669373 297.118927,266.669373 318.358856,266.669373 
	C318.359131,266.446930 318.359375,266.224457 318.359619,266.002014 
	C315.055328,266.002014 311.751007,266.002014 307.465149,266.002014 
M279.295898,275.979706 
	C279.561584,275.701996 279.827271,275.424286 280.092926,275.146545 
	C279.932465,275.116394 279.772186,275.060760 279.611542,275.059784 
	C275.463989,275.035736 271.316406,275.003296 267.168823,275.000671 
	C255.262405,274.993103 243.355972,274.997986 231.449554,274.997986 
	C231.449692,275.330109 231.449829,275.662201 231.449982,275.994324 
	C247.144714,275.994324 262.839447,275.994324 279.295898,275.979706 
M212.477493,275.997925 
	C201.858215,275.997925 191.238953,275.997925 180.619675,275.997925 
	C180.625000,276.222137 180.630325,276.446350 180.635651,276.670563 
	C195.214111,276.670563 209.792557,276.670563 224.371002,276.670563 
	C224.370865,276.446350 224.370712,276.222137 224.370560,275.997925 
	C220.735443,275.997925 217.100311,275.997925 212.477493,275.997925 
M317.659698,274.002014 
	C315.270782,274.002014 312.881836,274.002014 310.492920,274.002014 
	C310.501099,274.237885 310.509277,274.473785 310.517487,274.709656 
	C319.839478,274.709656 329.161469,274.709656 338.483459,274.709656 
	C338.484894,274.473785 338.486359,274.237885 338.487793,274.002014 
	C331.863678,274.002014 325.239563,274.002014 317.659698,274.002014 
z"/>
<path fill="#D8D8D8" opacity="1.000000" stroke="none" 
	d="
M339.989502,288.596283 
	C318.537781,288.833252 297.075531,288.833252 275.613312,288.833252 
	C275.611603,288.546997 275.609924,288.260773 275.608215,287.974518 
	C296.748596,287.974518 317.888947,287.974518 339.493408,287.929962 
	C339.957489,287.885406 339.978973,288.359314 339.989502,288.596283 
z"/>
<path fill="#D9D9D9" opacity="1.000000" stroke="none" 
	d="
M136.240234,433.806274 
	C134.120087,432.059082 132.346771,429.997467 130.327759,428.214020 
	C128.596741,426.684906 126.584518,425.474121 125.075874,423.509552 
	C130.115250,421.836731 132.602615,425.653595 135.357758,428.210815 
	C136.456573,429.230743 136.148224,431.766693 136.240234,433.806274 
z"/>
<path fill="#D9D9D9" opacity="1.000000" stroke="none" 
	d="
M146.697479,440.150116 
	C149.087143,444.013458 151.198166,447.776276 153.309189,451.539124 
	C152.704697,451.894348 152.100189,452.249542 151.495697,452.604767 
	C149.277008,448.683990 147.058319,444.763214 144.839630,440.842438 
	C145.366028,440.578156 145.892426,440.313873 146.697479,440.150116 
z"/>
<path fill="#D9D9D9" opacity="1.000000" stroke="none" 
	d="
M180.999359,290.333618 
	C187.188690,290.167236 193.378021,290.167236 199.567368,290.167236 
	C199.566483,290.431885 199.565613,290.696503 199.564728,290.961151 
	C193.685944,290.961151 187.807144,290.961151 181.463837,290.896973 
	C180.999298,290.832764 180.999359,290.500000 180.999359,290.333618 
z"/>
<path fill="#D9D9D9" opacity="1.000000" stroke="none" 
	d="
M141.378036,435.148376 
	C141.996750,435.650055 142.415451,436.202148 142.834137,436.754242 
	C142.424408,436.876801 142.014709,436.999390 141.604996,437.121948 
	C141.462662,436.480896 141.320343,435.839844 141.378036,435.148376 
z"/>
<path fill="#D9D9D9" opacity="1.000000" stroke="none" 
	d="
M295.034363,219.000092 
	C281.525787,220.744370 273.964325,214.662491 273.015808,201.375885 
	C272.546631,194.803574 272.446136,188.018890 278.739380,183.963181 
	C283.053772,181.182770 287.169464,177.577530 293.066925,177.929443 
	C300.501740,178.373123 307.132202,183.618027 309.134583,191.071548 
	C309.614502,192.857910 310.720154,194.467712 311.404144,196.211243 
	C311.752899,197.100235 312.195984,198.237961 311.926025,199.036652 
	C310.402069,203.545349 309.221741,208.303574 306.862305,212.358841 
	C304.521942,216.381302 300.510071,218.940613 295.034363,219.000092 
M292.408844,190.001083 
	C288.528351,188.609650 287.263214,192.282059 285.319275,194.049561 
	C282.190186,196.894577 282.532440,201.329651 284.460938,204.188080 
	C286.060516,206.559036 289.982941,208.774719 292.738922,208.619492 
	C296.772583,208.392334 298.572388,204.341385 298.955261,200.381805 
	C299.488434,194.867416 297.406586,191.308380 292.408844,190.001083 
z"/>
<path fill="#D9D9D9" opacity="1.000000" stroke="none" 
	d="
M344.826416,134.002441 
	C348.199005,135.193741 351.706512,135.734070 353.962067,137.706238 
	C358.900604,142.024307 358.737762,145.485580 356.122894,151.527084 
	C354.003540,156.423599 351.184601,159.238312 345.700500,160.262604 
	C337.657074,161.764908 330.064087,156.538956 329.759369,148.433060 
	C329.384949,138.473526 336.033112,133.567581 344.826416,134.002441 
M345.942627,147.673065 
	C345.357330,145.525513 345.357330,145.525513 343.182617,147.147156 
	C344.039185,147.501846 344.895752,147.856552 345.942627,147.673065 
z"/>
<path fill="#D9D9D9" opacity="1.000000" stroke="none" 
	d="
M287.467163,91.194275 
	C293.736572,94.887451 295.065796,96.844620 294.665833,101.425354 
	C288.981476,104.282219 285.650482,98.969894 281.383057,97.300491 
	C276.955719,95.568535 267.179962,95.501602 263.825378,98.853485 
	C259.744293,102.931297 256.019592,107.365776 252.032104,111.765808 
	C251.159973,110.939407 250.002167,110.088203 249.184555,108.984879 
	C248.597092,108.192131 247.880753,106.707405 248.224930,106.142471 
	C250.128265,103.018433 251.867798,99.547379 254.540588,97.189499 
	C260.588867,91.853836 267.902130,88.881203 276.073975,89.099144 
	C279.766418,89.197624 283.430634,90.354935 287.467163,91.194275 
z"/>
<path fill="#D9D9D9" opacity="1.000000" stroke="none" 
	d="
M301.962280,144.576202 
	C302.005157,154.836472 298.377808,159.089508 290.041473,158.999313 
	C284.777039,158.942352 280.955627,154.736526 282.125580,149.556137 
	C283.326904,144.237015 287.084503,138.117722 294.345551,138.847794 
	C298.276184,139.243011 300.171722,141.303940 301.962280,144.576202 
z"/>
<path fill="#D9D9D9" opacity="1.000000" stroke="none" 
	d="
M229.614365,163.782867 
	C227.062759,160.040161 223.759140,156.619354 225.101013,152.011337 
	C227.815765,142.688995 229.792572,132.271408 245.232956,134.471237 
	C243.548630,136.824600 242.709198,138.719376 241.272659,139.866272 
	C237.316711,143.024612 233.553101,146.246872 233.207382,151.718109 
	C233.089142,153.589218 233.614914,155.517761 233.968781,157.397034 
	C234.291458,159.110672 235.639664,161.416306 234.976730,162.331131 
	C234.153366,163.467331 231.726929,163.441833 229.614365,163.782867 
z"/>
<path fill="#D9D9D9" opacity="1.000000" stroke="none" 
	d="
M250.804565,253.997772 
	C231.717651,253.998016 213.100662,253.998016 194.483688,253.998016 
	C194.484604,253.757050 194.485519,253.516068 194.486435,253.275101 
	C215.500381,253.275101 236.514328,253.275101 257.528259,253.275101 
	C257.531494,253.515900 257.534729,253.756714 257.537964,253.997513 
	C255.450134,253.997513 253.362305,253.997513 250.804565,253.997772 
z"/>
<path fill="#D8D8D8" opacity="1.000000" stroke="none" 
	d="
M323.537994,252.561615 
	C313.526184,252.544098 303.489746,252.544098 293.453278,252.544098 
	C293.452240,252.434677 293.451202,252.325272 293.450165,252.215851 
	C303.197723,252.215851 312.945312,252.215851 323.125641,252.390808 
	C323.558411,252.565765 323.513367,252.579132 323.537994,252.561615 
z"/>
<path fill="#D9D9D9" opacity="1.000000" stroke="none" 
	d="
M149.951904,312.873840 
	C153.053787,308.242798 156.106766,303.986542 159.233963,299.626770 
	C163.853683,304.537964 163.550476,306.025177 158.918030,312.480621 
	C155.644699,317.042114 152.837372,321.955353 150.034485,326.833618 
	C142.759552,339.495117 141.402496,353.344666 141.912445,367.601379 
	C141.989182,369.746887 140.896561,371.934265 140.210953,374.628540 
	C134.471664,371.589539 134.970657,366.725464 135.237198,363.213684 
	C135.940674,353.945831 137.413345,344.684113 139.322098,335.575531 
	C141.034958,327.401672 144.191391,319.653534 149.951904,312.873840 
z"/>
<path fill="#D9D9D9" opacity="1.000000" stroke="none" 
	d="
M147.182892,400.719513 
	C145.623077,398.881775 144.186630,397.401550 143.095291,395.700012 
	C142.170685,394.258453 141.367218,392.619049 141.020340,390.960480 
	C140.665680,389.264801 140.932022,387.439270 140.926544,385.670563 
	C142.340958,386.000183 144.054367,385.930145 145.119324,386.726868 
	C150.466370,390.727295 152.900436,398.726318 150.332855,404.148529 
	C149.294449,403.005280 148.375153,401.993164 147.182892,400.719513 
z"/>
<path fill="#D8D8D8" opacity="1.000000" stroke="none" 
	d="
M212.137543,288.997925 
	C223.235458,288.997925 233.855362,288.997925 244.475281,288.997925 
	C244.474228,289.235565 244.473190,289.473175 244.472137,289.710815 
	C231.151657,289.710815 217.831177,289.710815 204.510681,289.710815 
	C204.502670,289.473175 204.494644,289.235565 204.486633,288.997925 
	C206.877609,288.997925 209.268585,288.997925 212.137543,288.997925 
z"/>
<path fill="#D8D8D8" opacity="1.000000" stroke="none" 
	d="
M307.955933,266.002014 
	C311.751007,266.002014 315.055328,266.002014 318.359619,266.002014 
	C318.359375,266.224457 318.359131,266.446930 318.358856,266.669373 
	C297.118927,266.669373 275.879028,266.669373 254.639099,266.669373 
	C254.635880,266.446930 254.632675,266.224457 254.629471,266.002014 
	C272.241364,266.002014 289.853241,266.002014 307.955933,266.002014 
z"/>
<path fill="#D8D8D8" opacity="1.000000" stroke="none" 
	d="
M149.898529,267.056885 
	C170.670532,267.089783 191.479599,267.089783 212.288666,267.089783 
	C212.312897,267.263092 212.337128,267.436432 212.361374,267.609741 
	C211.599869,267.738525 210.838715,267.977539 210.076813,267.979980 
	C190.139389,268.044006 170.201889,268.083923 150.264374,268.108093 
	C150.202026,268.108154 150.139313,267.818268 150.038666,267.306458 
	C150.000580,266.949127 149.935577,267.023956 149.898529,267.056885 
z"/>
<path fill="#D8D8D8" opacity="1.000000" stroke="none" 
	d="
M278.915039,275.987000 
	C262.839447,275.994324 247.144714,275.994324 231.449982,275.994324 
	C231.449829,275.662201 231.449692,275.330109 231.449554,274.997986 
	C243.355972,274.997986 255.262405,274.993103 267.168823,275.000671 
	C271.316406,275.003296 275.463989,275.035736 279.611542,275.059784 
	C279.772186,275.060760 279.932465,275.116394 280.092926,275.146545 
	C279.827271,275.424286 279.561584,275.701996 278.915039,275.987000 
z"/>
<path fill="#D8D8D8" opacity="1.000000" stroke="none" 
	d="
M212.971344,275.997925 
	C217.100311,275.997925 220.735443,275.997925 224.370560,275.997925 
	C224.370712,276.222137 224.370865,276.446350 224.371002,276.670563 
	C209.792557,276.670563 195.214111,276.670563 180.635651,276.670563 
	C180.630325,276.446350 180.625000,276.222137 180.619675,275.997925 
	C191.238953,275.997925 201.858215,275.997925 212.971344,275.997925 
z"/>
<path fill="#D8D8D8" opacity="1.000000" stroke="none" 
	d="
M318.137573,274.002014 
	C325.239563,274.002014 331.863678,274.002014 338.487793,274.002014 
	C338.486359,274.237885 338.484894,274.473785 338.483459,274.709656 
	C329.161469,274.709656 319.839478,274.709656 310.517487,274.709656 
	C310.509277,274.473785 310.501099,274.237885 310.492920,274.002014 
	C312.881836,274.002014 315.270782,274.002014 318.137573,274.002014 
z"/>
<path fill="#D9D9D9" opacity="1.000000" stroke="none" 
	d="
M349.438660,265.400330 
	C348.735931,266.226105 348.015533,267.072632 347.295166,267.919189 
	C347.345795,267.447632 347.396423,266.976074 347.447052,266.504547 
	C340.235138,265.323151 332.774719,266.456024 325.518707,265.143402 
	C333.217102,265.143402 340.915466,265.143402 349.036072,265.279297 
	C349.458313,265.415222 349.421051,265.421082 349.438660,265.400330 
z"/>
<path fill="#4C6971" opacity="1.000000" stroke="none" 
	d="
M292.828857,190.002777 
	C297.406586,191.308380 299.488434,194.867416 298.955261,200.381805 
	C298.572388,204.341385 296.772583,208.392334 292.738922,208.619492 
	C289.982941,208.774719 286.060516,206.559036 284.460938,204.188080 
	C282.532440,201.329651 282.190186,196.894577 285.319275,194.049561 
	C287.263214,192.282059 288.528351,188.609650 292.828857,190.002777 
z"/>
<path fill="#4C6971" opacity="1.000000" stroke="none" 
	d="
M345.847473,147.942154 
	C344.895752,147.856552 344.039185,147.501846 343.182648,147.147125 
	C345.357330,145.525513 345.357330,145.525513 345.847473,147.942154 
z"/>
</svg>